<svg id="Layer_1" data-name="Layer 1" xmlns="http://www.w3.org/2000/svg" viewBox="0 0 24 22.20869"><defs><style>.cls-1{fill:#6366f1;}.cls-2{fill:#fff;}</style></defs><title>Logo</title><path class="cls-1" d="M139.13358,117.66351a9.65447,9.65447,0,1,0,19.09,0,11.63443,11.63443,0,1,1-19.09,0Z" transform="translate(-136.67857 -117.66351)"/><path class="cls-1" d="M155.45849,139.8722a5.22008,5.22008,0,0,0,5.22008-5.22008v-4.53243a12.00009,12.00009,0,0,0-12.31675-11.99589A12.17627,12.17627,0,0,0,136.67857,130.39v4.26212a5.2201,5.2201,0,0,0,5.22009,5.22008Z" transform="translate(-136.67857 -117.66351)"/><circle class="cls-2" cx="12" cy="10.9211" r="7.36237"/><path class="cls-1" d="M151.378,128.74018a3.02956,3.02956,0,0,1-3.02968-3.02968,2.99778,2.99778,0,0,1,.80972-2.02723c-.09136-.0051-.1778-.02723-.27029-.02723a4.93412,4.93412,0,1,0,4.82238,3.91543A2.97633,2.97633,0,0,1,151.378,128.74018Z" transform="translate(-136.67857 -117.66351)"/></svg>